<?xml version="1.0" encoding="utf-8"?>
<!-- Generator: Adobe Illustrator 27.5.0, SVG Export Plug-In . SVG Version: 6.00 Build 0)  -->
<svg version="1.1" xmlns="http://www.w3.org/2000/svg" xmlns:xlink="http://www.w3.org/1999/xlink" x="0px" y="0px"
	 viewBox="0 0 500 500" style="enable-background:new 0 0 500 500;" xml:space="preserve">
<g id="BACKGROUND">
	<rect style="fill:#FFFFFF;" width="500" height="500"/>
</g>
<g id="OBJECTS">
	<g>
		<g>
			<path style="fill-rule:evenodd;clip-rule:evenodd;fill:#F3DFE1;" d="M72.212,446.871c0,0-27.989-116.832-15.327-225.585
				S126.997,30.55,258.541,32.766c131.544,2.216,186.635,110.202,194.186,214.086c7.551,103.884-33.32,202.101-33.32,202.101
				L72.212,446.871z"/>
			<g>
				<path style="fill:#E5BDC3;" d="M165.084,343.066c0-8.634-7.025-15.659-15.659-15.659h-13.378c-5.194,0-9.447-3.933-9.684-8.954
					c-0.123-2.603,0.797-5.072,2.59-6.95c1.794-1.88,4.212-2.915,6.81-2.915h74.444c4.433,0,8.57-1.757,11.649-4.948
					c3.078-3.189,4.685-7.39,4.527-11.828c-0.305-8.601-7.729-15.598-16.548-15.598H53.621c-0.004,0.444-0.008,0.889-0.011,1.333
					h156.223c8.11,0,14.936,6.42,15.217,14.312c0.145,4.075-1.331,7.93-4.155,10.856c-2.826,2.928-6.622,4.54-10.69,4.54h-74.444
					c-2.966,0-5.727,1.182-7.774,3.329c-2.047,2.145-3.096,4.962-2.957,7.932c0.27,5.733,5.109,10.224,11.015,10.224h13.378
					c7.9,0,14.326,6.427,14.326,14.326c0,7.9-6.426,14.326-14.326,14.326H57.776c0.047,0.445,0.094,0.89,0.141,1.333h91.507
					C158.059,358.725,165.084,351.7,165.084,343.066z"/>
				<path style="fill:#E5BDC3;" d="M257.205,97.511v-6.858c0-4.243-3.452-7.695-7.695-7.695h-47.883
					c-3.508,0-6.363-2.854-6.363-6.362c0-3.508,2.854-6.362,6.363-6.362h7.325c4.243,0,7.695-3.452,7.695-7.695v-7.595
					c0-4.243-3.452-7.695-7.695-7.695H170.12c-1.089,0.434-2.166,0.88-3.238,1.333h42.07c3.508,0,6.362,2.854,6.362,6.362v7.595
					c0,3.508-2.854,6.362-6.362,6.362h-7.325c-4.243,0-7.696,3.452-7.696,7.695c0,4.243,3.452,7.695,7.696,7.695h47.883
					c3.508,0,6.362,2.854,6.362,6.362v6.858c0,3.508-2.854,6.362-6.362,6.362H97.867c-0.318,0.444-0.638,0.886-0.951,1.333H249.51
					C253.753,105.206,257.205,101.754,257.205,97.511z"/>
				<path style="fill:#E5BDC3;" d="M451.176,230.778H340.731c-3.508,0-6.362-2.854-6.362-6.362v-7.595
					c0-3.508,2.854-6.362,6.362-6.362h7.325c4.243,0,7.695-3.452,7.695-7.695c0-4.243-3.452-7.695-7.695-7.695h-47.883
					c-3.508,0-6.362-2.854-6.362-6.362v-6.858c0-3.508,2.854-6.362,6.362-6.362h139.33c-0.138-0.445-0.277-0.889-0.417-1.333
					H300.173c-4.243,0-7.695,3.452-7.695,7.695v6.858c0,4.243,3.452,7.695,7.695,7.695h47.883c3.508,0,6.363,2.854,6.363,6.362
					c0,3.508-2.854,6.362-6.363,6.362h-7.325c-4.243,0-7.695,3.452-7.695,7.695v7.595c0,4.243,3.452,7.695,7.695,7.695h110.604
					C451.283,231.667,451.229,231.222,451.176,230.778z"/>
			</g>
			<g>
				<path style="fill:#FCF0F2;" d="M191.262,253.293c5.565,0,10.076-4.511,10.076-10.076v-9.832c0-5.565-4.511-10.076-10.076-10.076
					h-68.646c-5.565,0-10.076-4.511-10.076-10.076c0-5.565,4.511-10.076,10.076-10.076h10.502c5.565,0,10.076-4.511,10.076-10.076
					v-10.888c0-5.565-4.511-10.076-10.076-10.076H66.319c-4.331,15.577-7.439,32.041-9.434,49.17
					c-1.238,10.631-2.085,21.339-2.61,32.008H191.262z"/>
				<path style="fill:#FCF0F2;" d="M388.086,85.521h-52.527c-3.396,0-6.148,2.753-6.148,6.148v5.999
					c0,3.396,2.753,6.148,6.148,6.148h41.884c3.395,0,6.148,2.753,6.148,6.148c0,3.395-2.753,6.148-6.148,6.148h-6.408
					c-3.396,0-6.148,2.753-6.148,6.148v6.643c0,3.395,2.753,6.148,6.148,6.148h52.129
					C413.851,116.803,402.235,100.004,388.086,85.521z"/>
			</g>
			<path style="fill-rule:evenodd;clip-rule:evenodd;fill:#9095D6;" d="M432.804,332.069c0,0,16.449-26.828,12.337-62.652
				c-4.112-35.824-26.729-29.853-26.729-29.853s5.346-64.33-33.309-65.962s-32.486,65.962-32.486,65.962
				s-20.561-6.897-25.084,15.992s16.449,71.528,16.449,71.528s-26.055-0.468-27.552,25.742c-0.831,14.541,0.688,32.664,2.793,49.102
				c3.278,25.598,26.205,44.835,53.393,44.835h36.117c23.568,0,43.876-15.814,48.37-37.757
				C463.486,377.828,464.997,337.792,432.804,332.069z"/>
			<path style="fill:#D3D7F4;" d="M458.097,355.603l-73.975,34.461c1.887-21.075,3.814-46.743,5.097-74.497l54.996-52.115
				c-0.209-1.052-0.436-2.063-0.68-3.027l-54.142,51.306c1.022-23.352,1.571-48.081,1.247-72.724l25.882-30.504
				c-0.217-1.09-0.457-2.183-0.718-3.274l-25.226,29.731c-0.356-20.806-1.354-41.489-3.229-61.177
				c-0.734-0.081-1.478-0.147-2.246-0.179c-0.152-0.006-0.297-0.002-0.448-0.007c1.894,19.723,2.901,40.46,3.259,61.326
				l-32.686-32.84c-0.252,1.022-0.484,2.049-0.697,3.079l33.443,33.6c0.33,24.56-0.212,49.214-1.226,72.508l-54.204-66.983
				c-0.573,0.665-1.119,1.404-1.631,2.222l55.655,68.776c-1.281,27.768-3.211,53.454-5.098,74.536l-63.992-43.761
				c-0.239,0.895-0.44,1.834-0.606,2.815l64.322,43.987c-2.866,31.417-5.557,51.875-5.636,52.465l2.642,0.353
				c0.079-0.59,2.774-21.077,5.644-52.545l74.963-34.922C458.591,357.328,458.354,356.458,458.097,355.603z"/>
			<path style="fill-rule:evenodd;clip-rule:evenodd;fill:#ABB3EF;" d="M361.884,373.6c0,0,10.627-17.332,7.97-40.477
				c-2.657-23.144-17.269-19.287-17.269-19.287s3.454-41.561-21.519-42.615c-24.973-1.054-20.988,42.615-20.988,42.615
				s-13.284-4.456-16.206,10.332c-2.922,14.787,10.627,46.211,10.627,46.211s-16.833-0.302-17.8,16.631
				c-0.537,9.394,0.444,21.103,1.804,31.723c2.118,16.538,16.93,28.966,34.495,28.966h23.333c15.226,0,28.346-10.217,31.25-24.393
				C381.706,403.163,382.682,377.297,361.884,373.6z"/>
			<path style="fill:#D3D7F4;" d="M317.801,447.326c0.874,0.125,1.759,0.215,2.652,0.277c0.56-4.427,2.131-17.332,3.782-35.269
				l53.526-24.935c-0.301-0.852-0.644-1.671-1.017-2.466l-52.23,24.331c0.85-9.48,1.706-20.228,2.444-31.782
				c0.401-6.275,0.778-13.015,1.103-20.083l38.37-36.36c-0.466-0.85-0.96-1.606-1.472-2.277l-36.729,34.805
				c0.665-15.697,1.046-32.884,0.812-50.29l18.211-21.463c-0.454-0.826-0.945-1.621-1.475-2.382l-16.803,19.803
				c-0.177-9.329-0.54-18.688-1.133-27.886c-0.925,0.117-1.801,0.307-2.635,0.556c0.576,9.035,0.93,18.227,1.104,27.391
				l-13.43-13.494c-0.325,0.949-0.617,1.917-0.879,2.896l14.373,14.441c0.237,17.32-0.14,34.432-0.799,50.073l-28.925-35.745
				c-0.53,0.702-1.015,1.517-1.444,2.454l30.192,37.31c-0.324,7.06-0.701,13.793-1.101,20.061
				c-0.738,11.554-1.594,22.299-2.443,31.772l-34.97-23.915c-0.082,0.599-0.149,1.213-0.186,1.861
				c-0.023,0.395-0.039,0.8-0.056,1.203l34.936,23.891C319.926,430.074,318.352,442.978,317.801,447.326z"/>
			<path style="fill-rule:evenodd;clip-rule:evenodd;fill:#ABB3EF;" d="M127.829,354.397c0,0,12.501-20.389,9.376-47.616
				c-3.125-27.227-20.315-22.689-20.315-22.689s4.063-48.892-25.315-50.132c-29.378-1.24-24.69,50.132-24.69,50.132
				s-15.627-5.242-19.065,12.154c-3.438,17.396,12.501,54.362,12.501,54.362s-19.802-0.355-20.94,19.565
				c-0.631,11.051,0.523,24.825,2.122,37.319c2.491,19.455,19.916,34.075,40.579,34.075h27.449
				c17.912,0,33.347-12.019,36.762-28.696C151.147,389.174,152.296,358.746,127.829,354.397z"/>
			<path style="fill:#D3D7F4;" d="M94.536,408.399l51.688-38.546c-0.329-0.864-0.691-1.703-1.086-2.515l-50.863,37.93
				c-0.826-10.052-1.66-21.454-2.378-33.715c-0.391-6.679-0.759-13.857-1.076-21.383l42.521-57.3
				c-0.477-0.901-0.98-1.715-1.502-2.449l-41.19,55.507c-0.772-20.006-1.141-42.278-0.553-64.464l24.355-25.256
				c-0.267-0.983-0.562-1.959-0.883-2.924l-23.357,24.221c0.471-14.816,1.384-29.527,2.906-43.428
				c-0.505-0.052-1.017-0.094-1.543-0.116c-0.381-0.016-0.752-0.018-1.122-0.017c-1.463,13.41-2.364,27.559-2.85,41.829
				L68.881,255.56c-0.26,1.05-0.493,2.108-0.699,3.168l19.301,20.837c-0.664,22.968-0.288,46.086,0.515,66.766L47.411,304.39
				c0.077,1.372,0.212,2.791,0.397,4.242L88.16,350.33c0.316,7.525,0.685,14.701,1.076,21.379c0.72,12.29,1.555,23.72,2.384,33.797
				l-52.398-26.618c0.014,0.997,0.042,2.01,0.075,3.028l52.583,26.713c1.243,14.736,2.441,26.28,3.173,32.938h2.682
				C97.008,434.978,95.796,423.336,94.536,408.399z"/>
			<path style="fill-rule:evenodd;clip-rule:evenodd;fill:#686BB8;" d="M338.286,429.579H168.969
				c-28.27,0-110.547,8.439-110.547,18.849v0c0,10.41,82.277,18.849,110.547,18.849h169.316c28.27,0,110.547-8.439,110.547-18.849v0
				C448.833,438.018,366.555,429.579,338.286,429.579z"/>
			<g>
				<path style="fill-rule:evenodd;clip-rule:evenodd;fill:#332B28;" d="M221.437,117.185c0,0-4.665-4.766-9.33-4.433
					c-4.665,0.333-8.441,8.885-4.998,12.439s11.884,1.504,11.884,1.504L221.437,117.185z"/>
				<path style="fill-rule:evenodd;clip-rule:evenodd;fill:#F7F0E4;" d="M221.437,115.641c0,0-2.11-1.777-3.776,0
					c-1.666,1.777-1.494,6.495-8.552,16.882c-11.773,17.326-26.434,16.471-27.545,21.66c-1.111,5.189,9.219,4.885,8.663,9.439
					c-0.555,4.554-1.34,5.143,1.111,6.886c4.998,3.554,7.664-0.111,9.663,1.333c1.999,1.444,7.108-6.657,8.885-10.381
					c1.777-3.724,11.218-30.269,10.885-36.267C220.438,119.195,221.437,115.641,221.437,115.641z"/>
				<path style="fill:#EADFCE;" d="M192.005,154.516c-0.111,0-0.219-0.055-0.283-0.156c-0.098-0.156-0.051-0.362,0.105-0.46
					c19.002-11.902,25.563-32.051,25.627-32.253c0.056-0.176,0.243-0.274,0.418-0.217c0.175,0.056,0.273,0.243,0.217,0.418
					c-0.065,0.205-6.701,20.586-25.908,32.616C192.127,154.499,192.066,154.516,192.005,154.516z"/>
				<path style="fill:#EADFCE;" d="M190.867,166.565c-0.112,0-0.221-0.056-0.284-0.158c-0.097-0.157-0.049-0.362,0.108-0.459
					c0.185-0.114,18.564-11.686,25.934-32.813c0.061-0.174,0.253-0.265,0.424-0.205c0.174,0.061,0.266,0.251,0.205,0.424
					c-7.45,21.356-26.025,33.045-26.212,33.161C190.987,166.549,190.926,166.565,190.867,166.565z"/>
				<path style="fill-rule:evenodd;clip-rule:evenodd;fill:#2B211F;" d="M297.933,440.415c-0.549-4.39-1.717-6.25-1.717-6.25
					l-10.279-2.609c0,0-0.471,0.314-2.979,2.901c-2.509,2.587-16.151,9.016-21.56,11.29c-5.409,2.273-9.879,6.037-9.879,6.037
					l46.335-1.411C297.854,450.372,298.481,444.805,297.933,440.415z"/>
				<path style="fill-rule:evenodd;clip-rule:evenodd;fill:#2B211F;" d="M342.738,441.669c-4.336,0.068-11.718,4.625-15.239,8.126
					c-0.704,0.701-0.203,1.901,0.79,1.896l25.177-0.144c0,0,12.74-12.958,13.523-13.978c0.784-1.019-2.718-4.733-3.972-6.615
					c-1.254-1.882-5.338-4.222-5.338-4.222l-12.172,2.134l-0.365,6.977L342.738,441.669z"/>
				<path style="fill-rule:evenodd;clip-rule:evenodd;fill:#EBB495;" d="M295.459,435.843c1.171-2.357,0.918-3.07,0.918-3.07
					s-6.081-1.206-7.886-1.182c-1.805,0.023-2.713,1.006-2.713,1.006s-0.728,2.497,1.112,3.887
					C288.73,437.872,294.288,438.199,295.459,435.843z"/>
				<path style="fill-rule:evenodd;clip-rule:evenodd;fill:#4C4F89;" d="M297.259,434.76l14.858-149.905l-37.278-17.298
					l9.569,164.221c0,0,3.996,2.711,8.064,3.07C296.539,435.208,297.259,434.76,297.259,434.76z"/>
				
					<rect x="219.886" y="357.436" transform="matrix(0.0449 -0.999 0.999 0.0449 -77.4158 634.5681)" style="fill:#686BB8;" width="146.517" height="0.667"/>
				<path style="fill-rule:evenodd;clip-rule:evenodd;fill:#EBB495;" d="M352.917,430.144c4.626-1.49,5.253-2.666,5.253-2.666
					l-4.234-6.429l-9.33,3.371l1.255,6.194C345.861,430.615,348.292,431.634,352.917,430.144z"/>
				<path style="fill-rule:evenodd;clip-rule:evenodd;fill:#686BB8;" d="M281.818,196.396l-1.702-28.742l-16.958,26.704
					c0,0,5.018,24.281,5.802,24.304C269.744,218.684,281.818,196.396,281.818,196.396z"/>
				<path style="fill-rule:evenodd;clip-rule:evenodd;fill:#332B28;" d="M207.361,154.089c0,0-9.016,3.685-7.683,18.345
					c0,0,1.411,16.386,14.975,17.327c13.563,0.941,49.002-13.955,48.845-54.096c0,0-0.47-15.602-5.958-22.501
					c-5.488-6.899-14.896-7.84-18.973-3.998c-4.077,3.842-5.057,3.136-8.898,3.214c-9.573,0.195-13.144,5.702-14.31,15.681
					C214.104,138.801,218.572,144.367,207.361,154.089z"/>
				<path style="fill-rule:evenodd;clip-rule:evenodd;fill:#FFC3AE;" d="M238.136,169.26c4.116,1.137,12.936,6.194,12.936,6.194
					c-5.355-7.443-6.659-16.371-7.448-25.285l-14.073-2.705c1.195,7.035,1.25,13.614,0.471,20.698
					C230.021,168.162,234.02,168.123,238.136,169.26z"/>
				<path style="fill-rule:evenodd;clip-rule:evenodd;fill:#F4AF9A;" d="M243.624,150.169l-14.073-2.705
					c0.618,3.636,0.925,7.151,0.976,10.676c0.322-0.045,0.645-0.09,0.993-0.134c5.029-0.631,10.547,1.482,13.556,2.894
					C244.353,157.387,243.943,153.777,243.624,150.169z"/>
				<path style="fill-rule:evenodd;clip-rule:evenodd;fill:#686BB8;" d="M350.761,425.828c2.861-0.47,5.645-3.097,5.645-3.097
					l-32.213-158.164c-2.305-7.438-35.044-15.282-40.367,6.637l60.78,154.468C344.607,425.671,347.9,426.298,350.761,425.828z"/>
				<path style="fill-rule:evenodd;clip-rule:evenodd;fill:#4C4F89;" d="M324.193,264.566c-2.305-7.438-35.044-15.282-40.367,6.637
					l4.89,12.427c8.63-0.687,26.703-2.647,37.822-7.546L324.193,264.566z"/>
				<path style="fill-rule:evenodd;clip-rule:evenodd;fill:#FFC3AE;" d="M232.151,143.661c0,0-2.43-1.725-4.507-1.843
					c-8.788-0.498-1.209,13.581,7.723,9.291c0,0,4.038,4.312,8.703,5.92c8.458,2.914,11.986,0.166,12.388-8.585
					c0.157-3.411,0.246-4.727,0.246-4.727s2.885-1.666,2.336-3.704c-0.549-2.038-4.345-5.132-4.345-5.132
					c-0.932-5.536-3.988-18.733-12.269-16.542c-3.704,0.98-5.375,4.625-5.375,4.625C241.9,129.693,238.14,139.014,232.151,143.661z"
					/>
				<path style="fill-rule:evenodd;clip-rule:evenodd;fill:#F7F0E4;" d="M269.262,196.701c-2.714-9.147-14.648-19.659-22.815-23.992
					c-8.167-4.332-13.015-5.762-17.64-4.077c-4.626,1.686-7.37,9.251-8.233,13.328c-0.862,4.077-2.509,10.192,5.096,25.637
					c7.605,15.445,8.607,26.488,8.607,32.133c0,5.645,3.557,3.946,5.439,4.573c1.881,0.627,22.306,2.443,28.656,0.561
					c6.35-1.882,1.751-5.671,1.359-18.528C269.339,213.479,271.378,203.835,269.262,196.701z"/>
				<path style="fill-rule:evenodd;clip-rule:evenodd;fill:#EADFCE;" d="M249.609,188.83c0,0,8.223,11.986,12.962,12.823
					c4.739,0.836,4.739,0.836,4.739,0.836s1.951,13.102-1.673,14.913C262.014,219.215,249.609,188.83,249.609,188.83z"/>
				<path style="fill-rule:evenodd;clip-rule:evenodd;fill:#F7F0E4;" d="M278.084,301.645c-5.018-60.682-8.558-64.307-8.558-64.307
					l-34.774,3.344c0,0-13.807,13.064-25.562,43.591c-10.769,27.967-49.335,129.715-54.352,142.102
					c-1.779,4.393-2.987,7.366-3.804,9.374c-1.071,2.629,0.97,5.49,3.803,5.299c0.052-0.004,0.105-0.007,0.158-0.011
					c5.331-0.392,8.154-4.391,14.74,1.803c6.586,6.194-0.314,11.603,14.739,12.623c15.053,1.019,11.615-4.462,21.65-3.757
					c10.035,0.705,3.203,6.187,17.001,6.501c13.799,0.314,10.796-6.501,20.91-6.422c10.114,0.079,8.962,5.717,18.134,6.344
					c5.661,0.387,12.143-2.39,16.277-4.573c2.6-1.373,4.234-4.059,4.235-6.999C282.689,427.743,282.428,354.178,278.084,301.645z"/>
				<g>
					<path style="fill:#EADFCE;" d="M237.296,281.869c-10.078,49.852-23.905,165.58-24.723,172.461
						c0.099,0.117,0.197,0.235,0.294,0.354l0.331,0.039c0.143-1.21,14.421-121.617,24.752-172.722L237.296,281.869z"/>
					<path style="fill:#EADFCE;" d="M199.219,349.078L174,451.241c0.071,0.153,0.149,0.303,0.232,0.45l0.323,0.08l25.311-102.534
						L199.219,349.078z"/>
					<path style="fill:#EADFCE;" d="M271.893,317.469l-0.666,0.016l3.214,137.978c0.222-0.095,0.443-0.189,0.66-0.285
						L271.893,317.469z"/>
					<path style="fill:#EADFCE;" d="M257.362,457.088c0.213,0.088,0.436,0.171,0.666,0.251v-147.11h-0.666V457.088z"/>
					<path style="fill:#EADFCE;" d="M239.992,241.162l-0.552-0.373c-0.151,0.223-15.179,22.594-23.044,46.198
						c-7.855,23.576-14.987,54.069-15.058,54.374l0.649,0.151c0.071-0.305,7.196-30.768,15.041-54.315
						C224.863,263.682,239.841,241.384,239.992,241.162z"/>
					<path style="fill:#EADFCE;" d="M232.096,456.818l3.629-78.277l-0.665-0.031l-3.644,78.592
						C231.653,457.01,231.879,456.915,232.096,456.818z"/>
					<rect x="256.245" y="242.909" style="fill:#EADFCE;" width="0.666" height="50.037"/>
					<path style="fill:#EADFCE;" d="M249.288,242.82c-4.968,17.803-11.928,93.378-11.997,94.14l0.664,0.061
						c0.07-0.76,7.023-76.276,11.975-94.021L249.288,242.82z"/>
					<path style="fill:#EADFCE;" d="M194.175,454.89c2.523-14.633,10.332-59.461,16.456-89.68l-0.653-0.132
						c-6.167,30.431-14.041,75.668-16.509,89.989C193.715,455.011,193.95,454.952,194.175,454.89z"/>
					<path style="fill:#EADFCE;" d="M271.892,301.564c-0.148-2.037-3.687-49.99-8.096-58.803l-0.596,0.298
						c4.351,8.696,7.992,58.056,8.027,58.553L271.892,301.564z"/>
				</g>
				<path style="fill-rule:evenodd;clip-rule:evenodd;fill:#EADFCE;" d="M233.766,232.567c1.773,1.24,6.552,4.296,13.886,5.525
					c13.762,2.307,18.962,2.309,18.962,2.309l-44.462-58.887c0,0-0.829,14.977,2.719,24.421c0.255,0.544,0.519,1.096,0.799,1.664
					C230.81,218.037,232.929,226.457,233.766,232.567z"/>
				<path style="fill-rule:evenodd;clip-rule:evenodd;fill:#FA7070;" d="M270.655,237.337c-8.224,3.323-29.748,0.152-36.116-1.249
					c-1.025-0.225-2.023,0.454-2.197,1.489l-0.621,3.692c-0.152,0.906,0.384,1.801,1.266,2.057
					c16.455,4.783,38.571,1.45,38.571,1.45L270.655,237.337z"/>
				<path style="fill-rule:evenodd;clip-rule:evenodd;fill:#332B28;" d="M305.159,143.718c0,0,1.875-5.596,3.547-12.067
					c3.712-14.36,7.123-29.39-13.607-24.358c-0.211-9.575-10.299-9.67-12.113-2.156c-4.266-6.52-12.381-1.577-10.113,8.742
					C275.994,128.08,293.924,137.164,305.159,143.718z"/>
				<path style="fill-rule:evenodd;clip-rule:evenodd;fill:#686BB8;" d="M330.667,173.777c-0.672-14.128-9.601-22.308-25.726-21.445
					c-8.781,0.47-16.856,3.685-22.422,11.133c-5.567,7.448-8.075,25.167-8.78,31.282c-0.705,6.115-0.078,45.786,0.549,54.018
					c0.627,8.232-0.86,19.329-0.86,19.329s5.311,3.944,12.289,6.453c6.978,2.509,10.878-1.208,10.878-1.208s-0.59-6.621,6.701-8.345
					c7.291-1.725,12.466,8.859,12.466,8.859l12.231-8.467c0,0-8.309-21.952-7.839-32.615
					C320.624,222.109,331.137,183.656,330.667,173.777z"/>
				<path style="fill-rule:evenodd;clip-rule:evenodd;fill:#4C4F89;" d="M330.667,173.777c-0.104-2.187-0.407-4.231-0.903-6.121
					c-3.635-5.849-12.027-9.515-16.729-1.86l-5.821,9.304l-17.872,42.436c-0.363,0.861-1.212,1.414-2.146,1.399l-13.71-0.231
					c0.077,7.176,0.292,18.332,0.464,24.204l21.956,3.624c4.525,0.593,8.98-1.509,11.39-5.385
					c6.544-10.526,16.159-36.911,21.641-53.583C330.068,181.554,330.799,176.544,330.667,173.777z"/>
				<path style="fill-rule:evenodd;clip-rule:evenodd;fill:#FFC3AE;" d="M225.056,212.781c-0.863,3.606,1.568,5.959,2.352,10.506
					c0.784,4.547,0.627,6.507,4.782,7.683c4.155,1.176,7.526,0.548,7.526,0.548s1.803-6.82,2.274-11.054
					c0.47-4.234,0.232-5.71,0.232-5.71c-0.889-1.829-2.271-6.442-5.642-7.383c-3.371-0.941-6.899-1.176-7.291,0.314
					c-0.392,1.49,0.078,2.352,0.078,2.352S225.918,209.175,225.056,212.781z"/>
				<path style="fill-rule:evenodd;clip-rule:evenodd;fill:#F7F0E4;" d="M302.397,158.257c1.903-1.715,3.526-3.046,4.818-4.044
					c0.798-0.616,0.364-1.889-0.644-1.908c-0.534-0.01-1.077-0.001-1.63,0.028c-6.352,0.34-12.334,2.117-17.265,5.894
					c-1.96,2.513-2.873,1.962-3.431,11.997c-0.414,7.446,1.471,10.732,1.471,10.732S297.192,162.948,302.397,158.257z"/>
				<path style="fill-rule:evenodd;clip-rule:evenodd;fill:#FF8888;" d="M286.453,160.739c0.669-1.035,2.374,1.411,2.374,1.411
					s0.375-1.083,1.624-1.041c1.249,0.042,1.083,1.041,1.083,1.041s1.892-2.636,3.195-2.422c1.303,0.214,1.407,7.749-0.29,8.668
					c-1.697,0.918-3.446-2.872-3.446-2.872s-1,1.166-2.416-0.083c0,0-2.181,3.366-2.922,3.332
					C284.586,168.723,284.162,164.281,286.453,160.739z"/>
				<path style="fill-rule:evenodd;clip-rule:evenodd;fill:#686BB8;" d="M329.014,165.977c-2.879-6.795-12.492-12.037-17.655-3.632
					l-5.821,9.304l-17.872,42.436c-0.363,0.861-1.212,1.415-2.146,1.399l-43.299-0.729l-2.506,16.764l51.396,6.734
					c4.525,0.593,8.98-1.509,11.39-5.385C312.003,217.587,334.555,179.053,329.014,165.977z"/>
				<path style="fill:#4C4F89;" d="M271.708,215.617l-0.003-0.666l14.661-0.046c1.068-2.404,11.534-25.977,16.184-37.019
					c4.9-11.636,10.237-17.873,10.291-17.935l0.504,0.436c-0.053,0.061-5.325,6.228-10.18,17.757
					c-4.881,11.59-16.164,36.973-16.277,37.228l-0.088,0.197L271.708,215.617z"/>
				<path style="fill-rule:evenodd;clip-rule:evenodd;fill:#FFC3A1;" d="M268.371,215.191l-0.05,0.092
					C268.363,215.285,268.375,215.249,268.371,215.191z"/>
				<path style="fill-rule:evenodd;clip-rule:evenodd;fill:#FFC3AE;" d="M307.684,152.803c-2.595-8.769-4.62-17.146-6.429-26.107
					l-14.187,21.052c0,0,0.624,7.329,0.624,10.151c0,2.822,0,2.822,0,2.822s3.293,0.392,12.152-2.587
					C308.703,155.156,307.684,152.803,307.684,152.803z"/>
				<path style="fill-rule:evenodd;clip-rule:evenodd;fill:#F4AF9A;" d="M301.255,126.696l-14.187,21.052
					c0,0,0.549,6.443,0.617,9.573c9.167,0,12.38-11.141,18.11-11.21C303.691,138.639,302.813,134.413,301.255,126.696z"/>
				<path style="fill-rule:evenodd;clip-rule:evenodd;fill:#FFC3AE;" d="M290.434,122.698c-2.548-1.333-7.448-0.314-10.545-1.137
					c-3.097-0.823-6.016-4.376-6.016-4.376l0.394,12.061c-0.476,4.6-5.728,8.068-2.103,10.571c1.647,1.137,2.359,0.729,2.431,2.391
					c0.655,15.113,11.473,14.481,19.198,8.711c3.559-2.658,3.04-7.305,4.051-12.894c0,0,4.469,0.863,4.939-5.566
					c0.47-6.429-1.333-9.075-3.136-9.232c-1.803-0.157-3.567,1.548-4.194,5.586c-0.627,4.038-0.353,4.704-0.353,4.704l-2.705,0.941
					C292.394,134.458,292.982,124.031,290.434,122.698z"/>
				<path style="fill:#4C4F89;" d="M351.699,421.171l-0.31-0.121l-0.33-0.029c-0.024-2.088-22.183-94.895-33.896-143.677
					l0.648-0.155C325.859,310.71,352.091,420.161,351.699,421.171z"/>
				
					<rect x="300.253" y="242.802" transform="matrix(0.9898 -0.1428 0.1428 0.9898 -33.0818 45.5069)" style="fill:#4C4F89;" width="0.667" height="20.982"/>
				<path style="fill-rule:evenodd;clip-rule:evenodd;fill:#FFC3AE;" d="M291.667,167.349c-1.252-0.397-4.485,1.515-5.697,3.502
					c-1.212,1.987-1.673,4.861-1.673,4.861s-1.235-0.49-1.359,0.052c-1.829,7.997,0.47,10.715-0.261,13.694l-18.293,27.388
					c-0.152-2.152-24.667-43.277-24.667-43.277s-2.874-5.985-8.635-5.381c-5.762,0.604-9.87,7.265-8.929,13.325
					c0.681,4.388,35.543,57.268,35.543,57.268s4.389,5.661,10.14,1.619c3.56-2.502,20.33-38.608,21.898-49.27
					c0,0,1.307-1.307,2.658-4.349c1.351-3.042,0.217-6.86,0.373-8.77c0.209-2.558,0-4.024,0.47-5.958
					S292.919,167.746,291.667,167.349z"/>
				<path style="fill-rule:evenodd;clip-rule:evenodd;fill:#332B28;" d="M250.616,136.607c0.192,0.908-0.073,1.732-0.59,1.842
					c-0.518,0.109-1.093-0.538-1.284-1.446c-0.192-0.908,0.073-1.732,0.59-1.842C249.85,135.052,250.425,135.699,250.616,136.607z"
					/>
				<path style="fill:#332B28;" d="M245.134,135.893c-0.007,0.002-0.015,0.004-0.022,0.006c-0.18,0.04-0.357-0.073-0.398-0.252
					c-0.027-0.121-0.64-2.979,1.383-4.303c2.048-1.341,4.589,0.954,4.696,1.052c0.136,0.124,0.145,0.335,0.02,0.47
					c-0.124,0.135-0.335,0.145-0.471,0.021c-0.022-0.02-2.266-2.04-3.881-0.986c-1.635,1.07-1.104,3.576-1.098,3.601
					C245.403,135.673,245.301,135.844,245.134,135.893z"/>
				<path style="fill-rule:evenodd;clip-rule:evenodd;fill:#332B28;" d="M279.501,132.762c-0.001,0.928-0.43,1.68-0.959,1.679
					c-0.529,0-0.957-0.753-0.957-1.681c0.001-0.928,0.43-1.68,0.959-1.679C279.074,131.082,279.502,131.835,279.501,132.762z"/>
				<path style="fill:#332B28;" d="M276.055,128.873c-0.007-0.001-0.015-0.002-0.023-0.004c-0.18-0.038-0.296-0.214-0.258-0.394
					c0.025-0.121,0.643-2.978,3.033-3.352c2.419-0.379,3.789,2.759,3.846,2.893c0.072,0.169-0.006,0.364-0.175,0.437
					c-0.169,0.072-0.365-0.006-0.438-0.175c-0.012-0.028-1.225-2.792-3.131-2.497c-1.931,0.302-2.478,2.804-2.483,2.829
					C276.39,128.784,276.227,128.897,276.055,128.873z"/>
				<path style="fill-rule:evenodd;clip-rule:evenodd;fill:#F9A19D;" d="M250.725,149.912c0,0,2.193,2.112,5.188-0.864
					L250.725,149.912z"/>
				<path style="fill-rule:evenodd;clip-rule:evenodd;fill:#F9A19D;" d="M275.805,146.249c0,0,2.107,4.604,6.013,0.222"/>
				<path style="fill-rule:evenodd;clip-rule:evenodd;fill:#F4AF9A;" d="M296.727,133.415c0,0,1.07-7.788,3.457-7.001
					c2.387,0.787,1.277,3.554,1.055,3.776c-0.222,0.222-1.833-2.221-2.388-1.666C298.296,129.08,296.727,133.415,296.727,133.415z"
					/>
				<path style="fill-rule:evenodd;clip-rule:evenodd;fill:#F4AF9A;" d="M231.52,146.249c0,0-4.085-2.341-5.141-1.453
					c-1.055,0.889,0.055,3.054,0.722,3.221c0.666,0.167-0.333-1.777,0.444-2.055C228.324,145.684,231.52,146.249,231.52,146.249z"/>
			</g>
		</g>
		<path style="fill-rule:evenodd;clip-rule:evenodd;fill:#FF8888;" d="M167.77,168.786c-2.732-0.139-5.491,0.703-7.893,5.396
			c-2.402-4.693-5.162-5.535-7.893-5.396c-3.197,0.162-6.406,4.004-5.262,8.865c2.273,9.662,13.155,15.487,13.155,15.487
			s10.882-5.825,13.156-15.487C174.176,172.79,170.967,168.949,167.77,168.786z"/>
		<path style="fill-rule:evenodd;clip-rule:evenodd;fill:#FF8888;" d="M384.181,131.314c-2.732-0.139-5.491,0.703-7.893,5.396
			c-2.402-4.693-5.162-5.535-7.893-5.396c-3.197,0.162-6.406,4.003-5.262,8.865c2.274,9.662,13.156,15.487,13.156,15.487
			s10.882-5.825,13.155-15.487C390.587,135.317,387.378,131.476,384.181,131.314z"/>
		<path style="fill-rule:evenodd;clip-rule:evenodd;fill:#FF8888;" d="M347.841,106.929c-1.304-0.066-2.62,0.335-3.767,2.575
			c-1.147-2.24-2.463-2.642-3.767-2.575c-1.526,0.077-3.057,1.911-2.511,4.231c1.085,4.611,6.278,7.391,6.278,7.391
			s5.193-2.78,6.278-7.391C350.898,108.839,349.367,107.006,347.841,106.929z"/>
		<path style="fill-rule:evenodd;clip-rule:evenodd;fill:#FF8888;" d="M187.909,192.372c-1.304-0.066-2.62,0.335-3.767,2.575
			c-1.146-2.24-2.463-2.641-3.767-2.575c-1.526,0.077-3.057,1.911-2.511,4.231c1.085,4.611,6.278,7.391,6.278,7.391
			s5.193-2.78,6.278-7.391C190.966,194.282,189.435,192.449,187.909,192.372z"/>
	</g>
</g>
</svg>
